<?xml version="1.0" encoding="utf-8"?>
<!-- Generator: Adobe Illustrator 27.3.1, SVG Export Plug-In . SVG Version: 6.00 Build 0)  -->
<svg version="1.1" xmlns="http://www.w3.org/2000/svg" xmlns:xlink="http://www.w3.org/1999/xlink" x="0px" y="0px"
	 viewBox="0 0 1024 1024" style="enable-background:new 0 0 1024 1024;" xml:space="preserve">
<style type="text/css">
	.st0{display:none;}
	.st1{display:inline;opacity:0.38;fill:#FFFFFF;stroke:#231815;stroke-miterlimit:10;}
	.st2{display:inline;fill:#FFFFFF;stroke:#231815;stroke-miterlimit:10;}
	.st3{display:none;fill:#FFFFFF;}
	.st4{fill:#FFFFFF;}
	.st5{fill:#040000;}
	.st6{fill:#E50012;}

	.st7{fill:#1D2087;}
	.st8{fill:#C30D23;}
	.st9{fill:#FAED00;}
	.st10{display:inline;fill:#231815;}
</style>
<g id="レイヤー_1" class="st0">
</g>
<g id="レイヤー_3">
</g>
<g id="レイヤー_4">
</g>
<g id="レイヤー_6">
	<rect x="6.8987" y="0" class="st4" width="1019.748" height="1024"/>
	<circle class="st6" cx="514.6467" cy="512" r="257.1524"/>
	<g>
		<polygon points="390.8455,410.948 507.3955,470.048 625.2854,411.318 507.3955,352.578 		"/>
		<path d="M-4.252-4.252V1028.252H1028.252V-4.252H-4.252z M544.2056,705.458c0,4.82-1.23,9.24-3.3401,13.03
			c-4.7,8.45-13.78,13.82-23.49,13.82c-1.1101,0-2.22-0.07-3.3401-0.22c-2.1799-0.27-4.3699-0.83-6.53-1.69
			c-0.75-0.3-1.5-0.64-2.24-1.02l-34.6399-17.5699l-44.04-22.33l-128.53-65.17c-9.01-4.57-14.6899-13.81-14.6899-23.91v-121.14
			l71.3999,36.21v66.4l71.8201,36.42l44,22.31l2.23,1.13v-66.4c5.2,2.64,10.72,4.64,16.3901,6c5.72,1.38,11.6099,2.08,17.49,2.08
			c11.5598,0,23.1499-2.73,33.5-7.89l1.78-0.89l2.23-1.11V705.458z M731.4255,605.398c0,10.1-5.6799,19.34-14.6899,23.91
			l-128.53,65.17v-71.19l71.8198-36.42v-71.05l71.4001-35.58V605.398z M715.2056,439.168l-194.6301,96.97
			c-1.6399,0.82-3.3298,1.48-5.0601,1.99c-0.5798,0.17-1.1599,0.32-1.74,0.46c-2.3298,0.55-4.7,0.82-7.0798,0.82
			c-4.8301,0-9.6501-1.12-14.0701-3.37l-192.53-97.63c-22.79-11.56-22.7-44.14,0.1501-55.58l192.4299-96.35
			c3.29-1.65,6.8-2.68,10.3599-3.09c0.5901-0.06,1.1902-0.11,1.78-0.15c0.6001-0.03,1.1899-0.05,1.79-0.05
			c1.79,0,3.5701,0.15,5.3301,0.46c1.47,0.25,2.9199,0.62,4.3499,1.08c1.4302,0.47,2.8301,1.04,4.2002,1.72l194.72,97.02
			C738.1855,394.918,738.1855,427.718,715.2056,439.168z"/>
	</g>
	<g id="アイコンたち">
		<path class="st4 " d="M731.4255,480.238v125.16c0,10.1-5.6801,19.34-14.6901,23.91l-128.53,65.17v-71.19l71.8199-36.42v-71.05
			L731.4255,480.238z"/>
		<path class="st4" d="M544.2054,573.518v131.94c0,4.82-1.23,9.24-3.34,13.03c-4.7,8.45-13.78,13.82-23.49,13.82
			c-1.1101,0-2.22-0.07-3.3401-0.22c-2.1799-0.27-4.3698-0.83-6.53-1.69c-0.75-0.3-1.5-0.64-2.24-1.02l-34.6399-17.5699
			l-44.04-22.33l-128.53-65.17c-9.01-4.57-14.6899-13.81-14.6899-23.91v-121.14l71.3999,36.21v66.4l71.8201,36.42l44,22.31
			l2.23,1.13v-66.4c5.2,2.64,10.72,4.64,16.39,6c5.7201,1.38,11.61,2.08,17.49,2.08c11.5599,0,23.15-2.73,33.5-7.89l1.78-0.89
			L544.2054,573.518z"/>
		<path class="st4" d="M715.2054,383.468l-194.72-97.02c-1.37-0.68-2.77-1.25-4.2001-1.72c-1.4299-0.46-2.8799-0.83-4.3498-1.08
			c-1.76-0.31-3.54-0.46-5.3301-0.46c-0.6001,0-1.1899,0.02-1.79,0.05c-0.59,0.04-1.1899,0.09-1.78,0.15
			c-3.5599,0.41-7.0699,1.44-10.3599,3.09l-192.4301,96.35c-22.85,11.44-22.9401,44.02-0.15,55.58l192.53,97.63
			c4.4199,2.25,9.24,3.37,14.0699,3.37c2.38,0,4.75-0.27,7.0799-0.82c0.5801-0.14,1.1602-0.29,1.74-0.46
			c1.7301-0.5099,3.4202-1.17,5.0601-1.99l194.63-96.97C738.1855,427.718,738.1855,394.918,715.2054,383.468z M507.3955,470.048
			l-116.55-59.1l116.55-58.37l117.8899,58.74L507.3955,470.048z"/>

		<!-- 上のアイコン -->
		<!-- <circle class="st7" cx="507.748" cy="411.298" r="27.8199"/> -->
		<!---->

		<!--右のアイコン -->
		<!-- <circle class="st8" cx="588.2054" cy="551.6071" r="11.1405"/> -->
		<!---->

		<!-- 左のアイコン-->
		<!-- <circle class="st9" cx="413.7855" cy="545.3939" r="18.2222"/> -->
		<!---->
	</g>
</g>
<g id="レイヤー_5">
</g>
<g id="レイヤー_2" class="st0">
</g>
</svg>
