<?xml version="1.0" encoding="UTF-8"?><svg xmlns="http://www.w3.org/2000/svg" viewBox="0 0 1024 1024"><defs><style>.cls-1{fill:#fff;}.cls-2{fill:#e50012;}</style></defs><g id="_レイヤー_3"><rect class="cls-1" x="4.25199" width="1019.74801" height="1024"/></g><g id="_レイヤー_4"><circle class="cls-2" cx="512" cy="512" r="257.15238"/><polygon points="390.84546 410.948 507.39551 470.04803 625.2854 411.31799 507.39551 352.578 390.84546 410.948"/><path d="m-4.25195-4.25195v1032.50391h1032.50391V-4.25195H-4.25195Zm548.45752,709.70996c0,4.82001-1.22998,9.23999-3.34009,13.03003-4.69995,8.45001-13.78003,13.82001-23.48999,13.82001-1.11011,0-2.21997-.07001-3.34009-.22003-2.17993-.27002-4.36987-.83002-6.53003-1.69-.75-.29999-1.5-.64001-2.23999-1.02002l-34.63989-17.56995-44.04004-22.33002-128.53003-65.16998c-9.01001-4.57001-14.68994-13.81-14.68994-23.91003v-121.14001l71.3999,36.21002v66.40002l71.82007,36.41998,44,22.31,2.22998,1.13v-66.40002c5.19995,2.64001,10.71997,4.64001,16.39014,6,5.71997,1.38,11.60986,2.08002,17.48999,2.08002,11.55981,0,23.1499-2.72998,33.5-7.89001l1.78003-.89001,2.22998-1.10999v131.94Zm187.21997-100.06c0,10.10004-5.67993,19.34003-14.68994,23.91003l-128.53003,65.16998v-71.19l71.81982-36.41998v-71.05005l71.40015-35.57996v125.15997Zm-16.21997-166.22998l-194.63013,96.96997c-1.63989.82001-3.32983,1.48004-5.06006,1.98999-.57983.17004-1.15991.32001-1.73999.46002-2.32983.54999-4.69995.82001-7.07983.82001-4.83008,0-9.65015-1.12-14.07007-3.37l-192.53003-97.63c-22.79004-11.56-22.69995-44.14001.15015-55.58002l192.42993-96.34998c3.29004-1.65002,6.80005-2.67999,10.35986-3.09003.59009-.06,1.19019-.10999,1.78003-.14996.6001-.03003,1.18994-.04999,1.79004-.04999,1.79004,0,3.57007.14996,5.33008.45996,1.46997.25,2.91992.62,4.34985,1.08002,1.43018.46997,2.83008,1.03998,4.2002,1.71997l194.71997,97.02002c22.97998,11.45001,22.97998,44.25,0,55.70001Z"/></g></svg>